<svg width="8" height="171" viewBox="0 0 8 171" fill="none" xmlns="http://www.w3.org/2000/svg">
<path d="M3.947 170.818C6.12687 170.818 7.894 169.051 7.894 166.871C7.894 164.691 6.12687 162.924 3.947 162.924C1.76713 162.924 0 164.691 0 166.871C0 169.051 1.76713 170.818 3.947 170.818Z" fill="#333333"/>
<path d="M3.947 139.745C6.12687 139.745 7.894 137.978 7.894 135.798C7.894 133.618 6.12687 131.851 3.947 131.851C1.76713 131.851 0 133.618 0 135.798C0 137.978 1.76713 139.745 3.947 139.745Z" fill="#333333"/>
<path d="M3.947 108.672C6.12687 108.672 7.894 106.905 7.894 104.725C7.894 102.545 6.12687 100.778 3.947 100.778C1.76713 100.778 0 102.545 0 104.725C0 106.905 1.76713 108.672 3.947 108.672Z" fill="#333333"/>
<path d="M5.47697 0H2.41797V83.693H5.47697V0Z" fill="#333333"/>
</svg>
