<svg width="66" height="47" viewBox="0 0 66 47" fill="none" xmlns="http://www.w3.org/2000/svg">
<path d="M54.5841 30.1618C54.5723 28.989 54.136 27.8601 53.3559 26.9843C52.5758 26.1084 51.5048 25.5448 50.3411 25.3978C50.0851 22.0838 47.8771 5.61182 29.4491 5.61182C11.0211 5.61182 8.81411 22.0838 8.55811 25.3978C7.39444 25.5448 6.32343 26.1084 5.54333 26.9843C4.76324 27.8601 4.32689 28.989 4.31509 30.1618C3.3267 30.592 2.47839 31.2901 1.86606 32.1772C1.25372 33.0644 0.901799 34.1051 0.850098 35.1818V37.0818C0.901914 38.1585 1.25386 39.1992 1.86618 40.0863C2.4785 40.9734 3.32677 41.6716 4.31509 42.1018C4.32563 43.3842 4.84199 44.6106 5.75189 45.5143C6.66179 46.418 7.89167 46.926 9.1741 46.9278H10.5051C11.1447 46.9282 11.778 46.8024 12.3689 46.5575C12.9597 46.3126 13.4964 45.9535 13.9482 45.5008C14.4 45.0481 14.758 44.5107 15.0016 43.9193C15.2453 43.328 15.3698 42.6944 15.3681 42.0548V30.1988C15.3663 29.4414 15.1869 28.6951 14.8442 28.0197C14.5015 27.3442 14.0052 26.7586 13.3951 26.3098C13.5331 23.9578 14.9551 10.3448 29.4491 10.3448C43.9431 10.3448 45.3641 23.9548 45.5031 26.3098C44.8932 26.7587 44.397 27.3444 44.0543 28.0198C43.7117 28.6952 43.5321 29.4415 43.5301 30.1988V42.0538C43.5282 42.6936 43.6527 43.3274 43.8963 43.9189C44.1398 44.5105 44.4978 45.0482 44.9496 45.5012C45.4013 45.9541 45.938 46.3135 46.529 46.5587C47.1199 46.8038 47.7533 46.9299 48.3931 46.9298H49.7251C51.0075 46.928 52.2374 46.42 53.1473 45.5163C54.0572 44.6126 54.5736 43.3862 54.5841 42.1038C55.5723 41.6734 56.4204 40.9751 57.0327 40.0881C57.645 39.201 57.9971 38.1604 58.0491 37.0838V35.1838C57.9975 34.1069 57.6457 33.0658 57.0334 32.1783C56.4211 31.2908 55.5727 30.5923 54.5841 30.1618Z" fill="#E8E8E8"/>
<path d="M61.547 24.572C61.535 23.3994 61.0987 22.2707 60.3189 21.3949C59.539 20.5191 58.4684 19.9554 57.305 19.808C57.048 16.494 54.84 0.0219727 36.413 0.0219727C17.986 0.0219727 15.777 16.494 15.521 19.808C14.3576 19.9554 13.2869 20.5191 12.5071 21.3949C11.7272 22.2707 11.291 23.3994 11.279 24.572C10.2905 25.0021 9.442 25.7002 8.8295 26.5873C8.21699 27.4744 7.86489 28.5152 7.81299 29.592V31.492C7.86466 32.5688 8.21666 33.6097 8.82919 34.4969C9.44172 35.3841 10.2903 36.0821 11.279 36.512C11.2893 37.7945 11.8055 39.021 12.7155 39.9248C13.6254 40.8286 14.8555 41.3365 16.138 41.338H17.469C18.1085 41.3381 18.7417 41.2121 19.3324 40.9672C19.9231 40.7222 20.4597 40.3631 20.9115 39.9104C21.3632 39.4577 21.7212 38.9204 21.9649 38.3292C22.2087 37.738 22.3334 37.1045 22.332 36.465V24.609C22.3297 23.8517 22.1501 23.1055 21.8074 22.4301C21.4648 21.7548 20.9687 21.1691 20.359 20.72C20.496 18.368 21.919 4.75598 36.413 4.75598C50.907 4.75598 52.328 18.365 52.467 20.72C51.8569 21.1687 51.3605 21.7544 51.0179 22.4298C50.6752 23.1052 50.4958 23.8516 50.494 24.609V36.465C50.492 37.1047 50.6163 37.7384 50.8598 38.3299C51.1033 38.9214 51.4611 39.459 51.9128 39.9119C52.3645 40.3648 52.9012 40.7241 53.4921 40.9692C54.0829 41.2142 54.7163 41.3403 55.356 41.34H56.688C57.9704 41.3382 59.2003 40.8302 60.1102 39.9265C61.0201 39.0228 61.5364 37.7964 61.547 36.514C62.5354 36.0838 63.3837 35.3857 63.996 34.4986C64.6084 33.6115 64.9603 32.5707 65.012 31.494V29.594C64.9605 28.517 64.6087 27.4759 63.9964 26.5884C63.3841 25.7009 62.5356 25.0024 61.547 24.572Z" fill="#FDD243"/>
<path d="M58.3732 26.3723C58.3612 25.1996 57.9249 24.071 57.1451 23.1952C56.3652 22.3194 55.2946 21.7556 54.1312 21.6082C53.8742 18.2942 51.6662 1.82227 33.2392 1.82227C14.8122 1.82227 12.6042 18.2942 12.3472 21.6082C11.1838 21.7556 10.1131 22.3194 9.33325 23.1952C8.5534 24.071 8.11714 25.1996 8.10516 26.3723C7.11664 26.8026 6.26819 27.5009 5.6557 28.3882C5.04321 29.2755 4.69111 30.3164 4.63916 31.3932V33.2932C4.69123 34.3701 5.04338 35.411 5.65585 36.2982C6.26833 37.1855 7.11671 37.8838 8.10516 38.3143C8.1157 39.5967 8.63206 40.823 9.54196 41.7267C10.4519 42.6305 11.6817 43.1385 12.9642 43.1403H14.2952C14.9346 43.1401 15.5677 43.0139 16.1583 42.7689C16.7489 42.5238 17.2854 42.1647 17.7371 41.7121C18.1887 41.2595 18.5467 40.7223 18.7906 40.1312C19.0344 39.5401 19.1594 38.9066 19.1582 38.2672V26.4092C19.1559 25.652 18.9762 24.9057 18.6336 24.2303C18.291 23.555 17.7949 22.9694 17.1852 22.5203C17.3222 20.1683 18.7452 6.55621 33.2392 6.55621C47.7332 6.55621 49.1542 20.1653 49.2932 22.5203C48.6832 22.9692 48.187 23.5548 47.8444 24.2302C47.5017 24.9056 47.3222 25.6519 47.3202 26.4092V38.2653C47.3183 38.905 47.4428 39.5388 47.6863 40.1304C47.9299 40.7219 48.2878 41.2596 48.7396 41.7126C49.1914 42.1656 49.7281 42.5249 50.319 42.7701C50.9099 43.0152 51.5434 43.1414 52.1832 43.1412H53.5142C54.7966 43.1394 56.0265 42.6314 56.9364 41.7277C57.8463 40.824 58.3626 39.5976 58.3732 38.3152C59.3615 37.8847 60.2097 37.1864 60.822 36.2991C61.4343 35.4119 61.7863 34.371 61.8382 33.2943V31.3942C61.7867 30.3172 61.4349 29.2761 60.8226 28.3886C60.2102 27.5011 59.3618 26.8027 58.3732 26.3723ZM5.93915 33.2943V31.3942C5.97301 30.6702 6.18889 29.9663 6.56677 29.3478C6.94466 28.7292 7.47238 28.2159 8.10117 27.8552V36.8342C7.47224 36.4735 6.94442 35.9601 6.56653 35.3413C6.18863 34.7226 5.97285 34.0185 5.93915 33.2943ZM17.8582 26.4092V38.2712C17.8592 38.7397 17.7678 39.2038 17.5892 39.6369C17.4106 40.07 17.1483 40.4636 16.8173 40.7951C16.4863 41.1266 16.0932 41.3896 15.6604 41.569C15.2276 41.7483 14.7636 41.8405 14.2952 41.8403H12.9642C12.0195 41.8392 11.1139 41.4634 10.4459 40.7955C9.77796 40.1275 9.40221 39.2219 9.40115 38.2772V26.4092C9.40221 25.4647 9.77799 24.5592 10.446 23.8914C11.114 23.2236 12.0196 22.848 12.9642 22.8472H14.2952C15.2397 22.848 16.1454 23.2236 16.8134 23.8914C17.4813 24.5592 17.8571 25.4647 17.8582 26.4092ZM33.2392 5.25525C18.7392 5.25525 16.3392 18.1872 15.9462 21.8552C15.4181 21.6567 14.8593 21.5525 14.2952 21.5472H13.6472C13.8912 18.1342 15.9472 3.12427 33.2402 3.12427C50.5332 3.12427 52.5892 18.1342 52.8332 21.5472H52.1842C51.6197 21.5524 51.0606 21.6566 50.5322 21.8552C50.1402 18.1872 47.7312 5.25525 33.2392 5.25525ZM57.0771 38.2772C57.0761 39.2219 56.7004 40.1275 56.0324 40.7955C55.3644 41.4634 54.4588 41.8392 53.5142 41.8403H52.1832C51.7144 41.8408 51.2501 41.7486 50.817 41.5692C50.3838 41.3898 49.9904 41.1266 49.6594 40.7947C49.3283 40.4628 49.0661 40.0687 48.8877 39.6351C48.7094 39.2016 48.6184 38.7371 48.6201 38.2682V26.4092C48.6212 25.4647 48.997 24.5592 49.665 23.8914C50.333 23.2236 51.2386 22.848 52.1832 22.8472H53.5142C54.4587 22.848 55.3644 23.2236 56.0323 23.8914C56.7003 24.5592 57.0761 25.4647 57.0771 26.4092V38.2772ZM60.5392 33.2943C60.5054 34.0183 60.2896 34.7222 59.9117 35.3408C59.5338 35.9594 59.006 36.4727 58.3772 36.8333V27.8542C59.006 28.2148 59.5338 28.7281 59.9117 29.3467C60.2896 29.9653 60.5054 30.6692 60.5392 31.3932V33.2943Z" fill="#231F20"/>
</svg>
