<svg width="67" height="48" viewBox="0 0 67 48" fill="none" xmlns="http://www.w3.org/2000/svg">
<path d="M56.2391 42.2258H53.961V8.88678C53.9609 8.73198 53.9041 8.58258 53.8013 8.46686C53.6984 8.35114 53.5568 8.27707 53.4031 8.25873L45.7951 7.34473H45.7201H11.4321H11.356L3.75006 8.25873C3.59617 8.27684 3.45427 8.35081 3.35124 8.46655C3.24822 8.5823 3.19122 8.73183 3.19106 8.88678V42.2258H0.913055C0.745081 42.2258 0.583973 42.2924 0.465103 42.4111C0.346234 42.5298 0.279318 42.6908 0.279053 42.8588V44.7838C0.279297 45.2949 0.466736 45.7882 0.805939 46.1705C1.14514 46.5528 1.61262 46.7977 2.12006 46.8588L8.44505 47.6168C8.47026 47.6199 8.49565 47.6216 8.52106 47.6218H48.632C48.6575 47.6216 48.6828 47.6199 48.7081 47.6168L55.0321 46.8588C55.5395 46.7977 56.007 46.5528 56.3462 46.1705C56.6854 45.7882 56.8728 45.2949 56.8731 44.7838V42.8588C56.8728 42.6908 56.8059 42.5298 56.687 42.4111C56.5681 42.2924 56.407 42.2258 56.2391 42.2258Z" fill="#E8E8E8"/>
<path d="M65.555 32.2719H63.466V1.69395C63.466 1.55179 63.4139 1.4146 63.3195 1.30827C63.2252 1.20193 63.0951 1.13387 62.954 1.11698L55.976 0.279946C55.953 0.27843 55.93 0.27843 55.907 0.279946H24.46C24.4367 0.278429 24.4133 0.278429 24.39 0.279946L17.413 1.11698C17.2718 1.13387 17.1418 1.20193 17.0474 1.30827C16.9531 1.4146 16.901 1.55179 16.901 1.69395V32.2719H14.811C14.6571 32.2719 14.5094 32.3331 14.4005 32.4418C14.2916 32.5506 14.2302 32.698 14.23 32.852V34.617C14.2312 35.0851 14.4035 35.5365 14.7144 35.8865C15.0252 36.2364 15.4533 36.4606 15.918 36.5169L21.718 37.217C21.7413 37.2185 21.7647 37.2185 21.788 37.217H58.577C58.6003 37.2184 58.6237 37.2184 58.647 37.217L64.447 36.5169C64.9118 36.4608 65.3399 36.2367 65.6508 35.8867C65.9618 35.5367 66.134 35.0851 66.135 34.617V32.847C66.1337 32.694 66.072 32.5478 65.9633 32.4401C65.8547 32.3324 65.708 32.2719 65.555 32.2719Z" fill="#FDD243"/>
<path d="M8.55605 3.79801V37.1371H6.27805C6.19483 37.1369 6.11241 37.1532 6.03549 37.1849C5.95858 37.2167 5.88867 37.2633 5.82979 37.3221C5.7709 37.3809 5.7242 37.4507 5.69232 37.5276C5.66045 37.6044 5.64404 37.6868 5.64404 37.7701V39.694C5.64404 40.2053 5.83137 40.6989 6.17059 41.0814C6.50982 41.4639 6.97744 41.7089 7.48505 41.7701L13.809 42.527C13.8346 42.5302 13.8603 42.5319 13.886 42.532H53.997C54.0224 42.5318 54.0478 42.5301 54.073 42.527L60.397 41.7701C60.9046 41.7087 61.3721 41.4636 61.7112 41.0812C62.0504 40.6987 62.2378 40.2052 62.238 39.694V37.7701C62.238 37.6868 62.2216 37.6044 62.1898 37.5276C62.1579 37.4507 62.1112 37.3809 62.0523 37.3221C61.9934 37.2633 61.9235 37.2167 61.8466 37.1849C61.7697 37.1532 61.6872 37.1369 61.604 37.1371H59.326V3.79801C59.3259 3.6431 59.2691 3.49361 59.1663 3.37772C59.0635 3.26184 58.9218 3.18761 58.768 3.16904L51.16 2.25602C51.1347 2.2545 51.1094 2.2545 51.084 2.25602H16.797C16.7717 2.25455 16.7464 2.25455 16.721 2.25602L9.11504 3.16904C8.96106 3.18739 8.81915 3.26151 8.71614 3.37742C8.61313 3.49333 8.55618 3.64295 8.55605 3.79801ZM60.97 38.4031V39.694C60.97 39.8951 60.8964 40.0893 60.763 40.2398C60.6296 40.3904 60.4457 40.4868 60.246 40.511L53.972 41.263H13.936L7.63605 40.509C7.43638 40.4848 7.25249 40.3884 7.11909 40.2378C6.9857 40.0873 6.91204 39.8932 6.91203 39.6921V38.401H26.582L26.968 39.32C27.0161 39.4352 27.0972 39.5336 27.2012 39.6026C27.3051 39.6717 27.4272 39.7084 27.552 39.708H40.33C40.4549 39.7082 40.577 39.6713 40.681 39.602C40.7849 39.5328 40.866 39.4343 40.914 39.319L41.3 38.401L60.97 38.4031ZM9.82404 4.36002L16.824 3.52103H51.036L58.06 4.36204V37.1371H40.879C40.7542 37.1366 40.6321 37.1732 40.5281 37.2423C40.4241 37.3114 40.343 37.4098 40.295 37.5251L39.909 38.443H27.974L27.587 37.5251C27.539 37.4099 27.4578 37.3115 27.3539 37.2425C27.2499 37.1734 27.1278 37.1367 27.003 37.1371H9.82404V4.36002Z" fill="black"/>
</svg>
