<svg width="93" height="36" viewBox="0 0 93 36" fill="none" xmlns="http://www.w3.org/2000/svg">
<g clip-path="url(#clip0_1911_759)">
<path d="M12.551 2.98999V35.1099H10.3849L3.88495 15.5168L1.98495 8.81689L2.33795 15.792V35.1099H-0.00402832V2.98999H2.20596L8.83496 23.179L10.603 29.5569L10.249 22.9041V2.98999H12.551Z" fill="#231F20"/>
<path d="M64.212 30.1079C64.212 33.6869 61.8249 35.1079 59.6119 35.1079H52.541V2.98901H58.0649C61.9979 2.98901 64.165 5.51187 64.165 9.41187L64.121 18.5889C64.1705 19.5806 63.96 20.5682 63.5105 21.4536C63.0609 22.339 62.3879 23.0917 61.558 23.637C63.635 24.325 64.21 26.1149 64.21 27.8579L64.212 30.1079ZM54.887 5.19189V22.9919H58.157C59.2288 22.8593 60.211 22.3273 60.9075 21.502C61.604 20.6766 61.9634 19.6189 61.9139 18.54V9.40894C61.9139 6.97694 60.986 5.23399 58.069 5.18799L54.887 5.19189ZM61.9139 27.8589C61.9139 26.0239 60.6759 25.152 58.9969 25.106H54.887V32.9519H59.619C61.651 32.9519 61.9189 30.9789 61.9189 30.1079L61.9139 27.8589Z" fill="#231F20"/>
<path d="M71.062 5.10205V24.4199H77.735V26.531H71.062V32.9548H79.462V35.1121H68.7189V2.99194H79.4579V5.10303L71.062 5.10205Z" fill="#231F20"/>
<path d="M92.2289 32.9519V35.1089H83.129V2.98901H85.4709V32.9519H92.2289Z" fill="#231F20"/>
<path d="M35.297 4.71289H29.628C29.2903 4.7121 28.9667 4.57762 28.728 4.33887C28.4892 4.10012 28.3547 3.77661 28.3539 3.43896V1.27393C28.3547 0.936283 28.4892 0.612773 28.728 0.374023C28.9667 0.135274 29.2903 0.000792281 29.628 0H35.328C35.6656 0.000792281 35.9892 0.135274 36.2279 0.374023C36.4667 0.612773 36.6012 0.936283 36.602 1.27393V3.43896C36.6005 3.60857 36.5655 3.77612 36.499 3.93213C36.4325 4.08814 36.3357 4.22947 36.2143 4.3479C36.0929 4.46634 35.9492 4.55967 35.7916 4.62231C35.634 4.68496 35.4655 4.71567 35.296 4.71289" fill="#92C050"/>
<path d="M32.4619 35.6398C29.2183 35.6398 26.0476 34.6779 23.3506 32.8759C20.6537 31.0738 18.5516 28.5125 17.3103 25.5158C16.0691 22.5191 15.7443 19.2217 16.3771 16.0404C17.0099 12.8592 18.5718 9.93681 20.8654 7.64323C23.159 5.34965 26.0812 3.78775 29.2625 3.15495C32.4438 2.52215 35.7413 2.84702 38.738 4.0883C41.7347 5.32957 44.296 7.43161 46.0981 10.1286C47.9001 12.8255 48.8619 15.9963 48.8619 19.2399C48.8564 23.5878 47.1268 27.7558 44.0524 30.8302C40.978 33.9046 36.8098 35.6343 32.4619 35.6398ZM32.4619 5.6049C29.7658 5.6049 27.1302 6.40436 24.8884 7.90226C22.6467 9.40017 20.8994 11.5293 19.8676 14.0202C18.8359 16.5111 18.5659 19.2521 19.0919 21.8964C19.6179 24.5408 20.9162 26.9697 22.8227 28.8761C24.7292 30.7826 27.1581 32.0809 29.8025 32.6069C32.4468 33.1328 35.1878 32.863 37.6787 31.8312C40.1696 30.7994 42.2986 29.0522 43.7965 26.8105C45.2944 24.5687 46.094 21.9331 46.094 19.237C46.0897 15.6228 44.6521 12.1578 42.0966 9.60221C39.541 7.04663 36.0761 5.60913 32.4619 5.6049Z" fill="#92C050"/>
<path d="M30.233 16.689C30.105 16.753 30.01 16.8158 29.978 16.9438L25.806 24.938C25.741 25.0717 25.7193 25.2223 25.7439 25.3689C25.7684 25.5155 25.8381 25.6507 25.9431 25.7559C26.0482 25.861 26.1834 25.9308 26.33 25.9556C26.4766 25.9803 26.6272 25.9589 26.761 25.894L34.755 21.7209C34.883 21.6579 34.978 21.594 35.01 21.467" fill="#4BB649"/>
<path d="M34.919 21.5621C35.046 21.4981 35.142 21.4349 35.174 21.3069L39.346 13.313C39.4112 13.1793 39.433 13.0284 39.4084 12.8816C39.3839 12.7349 39.3141 12.5994 39.2089 12.4942C39.1036 12.3889 38.9682 12.3191 38.8214 12.2945C38.6746 12.2699 38.5238 12.2918 38.39 12.357L30.396 16.5301C30.269 16.5941 30.173 16.657 30.141 16.785" fill="#1D783C"/>
</g>
<defs>
<clipPath id="clip0_1911_759">
<rect width="92.229" height="35.64" fill="white"/>
</clipPath>
</defs>
</svg>
