<svg width="37" height="47" viewBox="0 0 37 47" fill="none" xmlns="http://www.w3.org/2000/svg">
<path d="M21.9468 22.8019V13.5269C21.9468 11.3323 21.075 9.22746 19.5231 7.6756C17.9713 6.12373 15.8665 5.25195 13.6718 5.25195C11.4771 5.25195 9.37239 6.12373 7.82053 7.6756C6.26866 9.22746 5.39682 11.3323 5.39682 13.5269V22.8019H0.382812V26.0629C0.392028 28.9529 1.33924 31.7618 3.082 34.0672C4.82476 36.3726 7.26888 38.0499 10.0468 38.8469L10.4098 38.947V43.6909C10.4096 44.1558 10.2248 44.6015 9.89609 44.9302C9.56739 45.2589 9.12167 45.4436 8.65683 45.4439H5.39682V46.952H21.9468V45.447H18.6859C18.221 45.4467 17.7753 45.2619 17.4466 44.9332C17.1179 44.6045 16.9331 44.1588 16.9328 43.6939V38.95L17.2958 38.8499C20.0743 38.053 22.5189 36.3755 24.2618 34.0696C26.0048 31.7638 26.952 28.9544 26.9608 26.064V22.8029L21.9468 22.8019Z" fill="#E8E8E8"/>
<path d="M31.0308 17.8822V8.60815C31.0428 7.51388 30.8377 6.42809 30.4273 5.41364C30.0168 4.39918 29.4092 3.47624 28.6397 2.69818C27.8701 1.92012 26.9539 1.30242 25.944 0.880859C24.9341 0.459295 23.8507 0.242188 22.7563 0.242188C21.662 0.242188 20.5785 0.459295 19.5686 0.880859C18.5587 1.30242 17.6425 1.92012 16.8729 2.69818C16.1034 3.47624 15.4958 4.39918 15.0854 5.41364C14.6749 6.42809 14.4698 7.51388 14.4818 8.60815V17.8822H9.4668V21.1472C9.47564 24.0376 10.4228 26.8471 12.1658 29.1529C13.9088 31.4587 16.3534 33.1363 19.1318 33.9332L19.4958 34.0332V38.7772C19.4953 39.2421 19.3103 39.6878 18.9814 40.0165C18.6526 40.3451 18.2067 40.5299 17.7418 40.5302H14.4818V42.0372H31.0308V40.5302H27.7708C27.3058 40.5299 26.86 40.3451 26.5312 40.0165C26.2023 39.6878 26.0173 39.2421 26.0168 38.7772V34.0332L26.3798 33.9332C29.1586 33.1366 31.6036 31.4592 33.347 29.1534C35.0904 26.8475 36.0378 24.0379 36.0468 21.1472V17.8862L31.0308 17.8822Z" fill="#FDD243"/>
<path d="M21.9848 8.81836H19.6958V11.1074H21.9848V8.81836Z" fill="black"/>
<path d="M21.9848 13.832H19.6958V16.12H21.9848V13.832Z" fill="black"/>
<path d="M16.9706 8.81836H14.6816V11.1074H16.9706V8.81836Z" fill="black"/>
<path d="M16.9706 13.832H14.6816V16.12H16.9706V13.832Z" fill="black"/>
<path d="M31.4568 19.7053H26.4468V10.4312C26.4468 8.23655 25.575 6.13182 24.0231 4.57996C22.4713 3.02809 20.3665 2.15625 18.1718 2.15625C15.9771 2.15625 13.8724 3.02809 12.3205 4.57996C10.7687 6.13182 9.89682 8.23655 9.89682 10.4312V19.7053H4.88281V22.9662C4.8915 25.8568 5.83859 28.6662 7.5816 30.9721C9.32462 33.278 11.7693 34.9555 14.5478 35.7523L14.9108 35.8522V40.5963C14.9103 41.061 14.7254 41.5066 14.3968 41.8352C14.0682 42.1638 13.6226 42.3487 13.1578 42.3492H9.89682V43.8563H26.4468V42.3492H23.1859C22.7211 42.3487 22.2755 42.1638 21.9468 41.8352C21.6182 41.5066 21.4333 41.061 21.4328 40.5963V35.8522L21.7958 35.7523C24.5744 34.9555 27.019 33.278 28.762 30.9721C30.505 28.6662 31.4521 25.8568 31.4608 22.9662L31.4568 19.7053ZM11.3998 10.4312C11.389 9.53557 11.5559 8.64672 11.8911 7.8161C12.2264 6.98548 12.7231 6.22967 13.3526 5.59247C13.9821 4.95527 14.7319 4.44935 15.5583 4.10406C16.3848 3.75878 17.2716 3.58099 18.1673 3.58099C19.063 3.58099 19.9498 3.75878 20.7763 4.10406C21.6028 4.44935 22.3525 4.95527 22.982 5.59247C23.6115 6.22967 24.1083 6.98548 24.4435 7.8161C24.7787 8.64672 24.9457 9.53557 24.9348 10.4312V19.7053H11.3998V10.4312ZM11.3998 21.2122H24.9348V22.9662C24.9348 24.7611 24.2218 26.4824 22.9527 27.7516C21.6835 29.0207 19.9621 29.7338 18.1673 29.7338C16.3724 29.7338 14.6511 29.0207 13.382 27.7516C12.1128 26.4824 11.3998 24.7611 11.3998 22.9662V21.2122ZM15.9898 42.3533L16.2268 41.6862C16.3507 41.3375 16.4139 40.9702 16.4138 40.6002V36.1472L16.9598 36.1962C17.7631 36.2712 18.5716 36.2712 19.3748 36.1962L19.9208 36.1472V40.5972C19.9207 40.9673 19.984 41.3346 20.1078 41.6832L20.3438 42.3502L15.9898 42.3533ZM29.9498 22.9662C29.9498 26.091 28.7085 29.0878 26.499 31.2974C24.2894 33.5069 21.2926 34.7482 18.1678 34.7482C15.0431 34.7482 12.0463 33.5069 9.8367 31.2974C7.62715 29.0878 6.38583 26.091 6.38583 22.9662V21.2122H9.89282V22.9662C9.89282 25.1609 10.7647 27.2657 12.3165 28.8176C13.8684 30.3694 15.9732 31.2412 18.1678 31.2412C20.3625 31.2412 22.4673 30.3694 24.0192 28.8176C25.571 27.2657 26.4428 25.1609 26.4428 22.9662V21.2122H29.9468L29.9498 22.9662Z" fill="black"/>
</svg>
