<svg width="53" height="47" viewBox="0 0 53 47" fill="none" xmlns="http://www.w3.org/2000/svg">
<path d="M44.53 32.3678H41.697V29.3468H41.861C41.9433 29.347 42.0247 29.3307 42.1005 29.2987C42.1762 29.2667 42.2448 29.2199 42.302 29.1608C42.3594 29.102 42.4045 29.0324 42.4349 28.956C42.4653 28.8796 42.4803 28.798 42.479 28.7158L42.032 7.4538C42.0201 6.91096 41.7961 6.39441 41.408 6.01471C41.0198 5.63501 40.4985 5.42236 39.9555 5.42236C39.4126 5.42236 38.8912 5.63501 38.5031 6.01471C38.1149 6.39441 37.8909 6.91096 37.879 7.4538L37.432 28.7158C37.4305 28.798 37.4454 28.8797 37.4758 28.9561C37.5062 29.0325 37.5515 29.1021 37.609 29.1608C37.6663 29.2199 37.7348 29.2667 37.8106 29.2987C37.8863 29.3307 37.9678 29.347 38.05 29.3468H38.214V32.3718H7.38904V29.3468H7.55402C7.63626 29.347 7.71769 29.3307 7.79346 29.2987C7.86923 29.2667 7.93776 29.2199 7.995 29.1608C8.05236 29.102 8.09756 29.0324 8.12794 28.956C8.15831 28.8796 8.17326 28.798 8.172 28.7158L7.72504 7.4538C7.70829 6.9141 7.48211 6.40215 7.09443 6.02631C6.70674 5.65047 6.18797 5.44025 5.64802 5.44025C5.10806 5.44025 4.58929 5.65047 4.2016 6.02631C3.81392 6.40215 3.58774 6.9141 3.57099 7.4538L3.12501 28.7158C3.12353 28.798 3.13844 28.8797 3.16883 28.9561C3.19922 29.0325 3.24447 29.1021 3.30201 29.1608C3.35906 29.2198 3.42745 29.2667 3.50306 29.2987C3.57866 29.3307 3.65993 29.347 3.74201 29.3468H3.90699V32.3718H1.07404C0.910392 32.3724 0.753569 32.4377 0.637945 32.5535C0.522321 32.6693 0.457301 32.8262 0.457037 32.9898V40.6658C0.456542 40.7805 0.488187 40.893 0.548468 40.9906C0.608749 41.0882 0.695251 41.1669 0.79804 41.2178C1.53556 41.536 2.30213 41.7822 3.08704 41.9528L3.12501 41.9628V44.1628C3.1258 44.7307 3.35171 45.275 3.75324 45.6766C4.15477 46.0781 4.69918 46.304 5.26703 46.3048H40.337C40.9049 46.304 41.4492 46.0781 41.8508 45.6766C42.2523 45.275 42.4782 44.7307 42.479 44.1628V41.9628L42.516 41.9528C43.3011 41.7816 44.068 41.5355 44.806 41.2178C44.9088 41.1669 44.9953 41.0882 45.0555 40.9906C45.1158 40.893 45.1475 40.7805 45.147 40.6658V32.9898C45.1474 32.9084 45.1318 32.8278 45.101 32.7525C45.0702 32.6772 45.0248 32.6087 44.9675 32.5509C44.9102 32.4931 44.842 32.4472 44.767 32.4158C44.6919 32.3844 44.6114 32.3681 44.53 32.3678Z" fill="#E8E8E8"/>
<path d="M51.4768 27.3158H48.6469V24.2898H48.8109C48.893 24.2898 48.9743 24.2734 49.0501 24.2416C49.1259 24.2098 49.1946 24.1633 49.2521 24.1046C49.3097 24.0459 49.3549 23.9764 49.3853 23.9C49.4156 23.8237 49.4304 23.742 49.4288 23.6598L48.9818 2.39783C48.9699 1.855 48.7459 1.33838 48.3578 0.958679C47.9697 0.578982 47.4483 0.366394 46.9053 0.366394C46.3624 0.366394 45.841 0.578982 45.4529 0.958679C45.0648 1.33838 44.8407 1.855 44.8288 2.39783L44.3818 23.6598C44.3806 23.742 44.3956 23.8236 44.426 23.9C44.4563 23.9763 44.5015 24.0459 44.5588 24.1048C44.6163 24.1635 44.6849 24.2102 44.7606 24.2419C44.8364 24.2737 44.9177 24.29 44.9998 24.2898H45.1638V27.3158H14.3369V24.2898H14.5009C14.583 24.29 14.6643 24.2737 14.7401 24.2419C14.8158 24.2102 14.8844 24.1635 14.9418 24.1048C14.9992 24.0459 15.0443 23.9763 15.0747 23.9C15.1051 23.8236 15.1201 23.742 15.1188 23.6598L14.6718 2.39783C14.6718 1.84697 14.453 1.31865 14.0635 0.929138C13.674 0.539625 13.1457 0.320801 12.5948 0.320801C12.044 0.320801 11.5157 0.539625 11.1262 0.929138C10.7366 1.31865 10.5178 1.84697 10.5178 2.39783L10.0718 23.6598C10.0706 23.742 10.0855 23.8236 10.1159 23.9C10.1463 23.9763 10.1915 24.0459 10.2488 24.1048C10.3063 24.1635 10.3749 24.2102 10.4506 24.2419C10.5264 24.2737 10.6077 24.29 10.6898 24.2898H10.8538V27.3158H8.02081C7.85726 27.3161 7.70049 27.3812 7.58484 27.4968C7.46919 27.6125 7.40407 27.7692 7.40381 27.9328V35.6098C7.40366 35.7244 7.43555 35.8368 7.49579 35.9343C7.55603 36.0318 7.64224 36.1106 7.74481 36.1618C8.48288 36.4795 9.24977 36.7256 10.0349 36.8968L10.0718 36.9068V39.1008C10.0724 39.6689 10.2981 40.2135 10.6997 40.6152C11.1013 41.017 11.6458 41.243 12.2138 41.2438H47.2838C47.8518 41.243 48.3964 41.017 48.7979 40.6152C49.1995 40.2135 49.4253 39.6689 49.4258 39.1008V36.9068L49.4638 36.8968C50.2487 36.7249 51.0155 36.4788 51.7538 36.1618C51.8562 36.1104 51.9422 36.0316 52.0022 35.9341C52.0622 35.8366 52.0939 35.7243 52.0938 35.6098V27.9328C52.0935 27.7692 52.0285 27.6125 51.9128 27.4968C51.7972 27.3812 51.6404 27.3161 51.4768 27.3158Z" fill="#FDD243"/>
<path d="M23.9554 17.8835C24.0127 17.9409 24.0807 17.9864 24.1556 18.0175C24.2305 18.0485 24.3108 18.0645 24.3919 18.0645C24.4729 18.0645 24.5532 18.0485 24.6281 18.0175C24.703 17.9864 24.7711 17.9409 24.8284 17.8835C25.2351 17.4772 25.7865 17.249 26.3614 17.249C26.9363 17.249 27.4876 17.4772 27.8944 17.8835C28.0101 17.9993 28.1672 18.0644 28.3309 18.0644C28.4946 18.0644 28.6516 17.9993 28.7674 17.8835C28.8832 17.7678 28.9482 17.6108 28.9482 17.4471C28.9482 17.2834 28.8832 17.1263 28.7674 17.0106C28.1285 16.374 27.2633 16.0166 26.3614 16.0166C25.4595 16.0166 24.5943 16.374 23.9554 17.0106C23.8981 17.0675 23.8526 17.1353 23.8217 17.21C23.7908 17.2847 23.7751 17.3647 23.7754 17.4456C23.775 17.6096 23.8397 17.7672 23.9554 17.8835Z" fill="black"/>
<path d="M26.361 13.4468C25.5774 13.4449 24.8011 13.5982 24.0771 13.8981C23.3532 14.198 22.6958 14.6383 22.143 15.1937C22.0277 15.3097 21.9629 15.4667 21.9629 15.6303C21.9629 15.7938 22.0277 15.9508 22.143 16.0668C22.2003 16.1241 22.2684 16.1697 22.3433 16.2007C22.4182 16.2317 22.4985 16.2477 22.5795 16.2477C22.6606 16.2477 22.7409 16.2317 22.8158 16.2007C22.8907 16.1697 22.9587 16.1241 23.016 16.0668C23.9033 15.18 25.1065 14.6818 26.361 14.6818C27.6155 14.6818 28.8187 15.18 29.706 16.0668C29.8218 16.1826 29.9788 16.2476 30.1425 16.2476C30.3062 16.2476 30.4632 16.1826 30.579 16.0668C30.6947 15.951 30.7598 15.794 30.7598 15.6303C30.7598 15.4665 30.6947 15.3095 30.579 15.1937C30.0262 14.6383 29.3689 14.198 28.6449 13.8981C27.9209 13.5982 27.1447 13.4449 26.361 13.4468Z" fill="black"/>
<path d="M26.3611 10.8936C25.2411 10.8909 24.1317 11.1105 23.0971 11.5396C22.0625 11.9688 21.1234 12.5989 20.3341 13.3936C20.2768 13.4509 20.2313 13.5189 20.2003 13.5938C20.1693 13.6687 20.1533 13.749 20.1533 13.8301C20.1533 13.9112 20.1693 13.9914 20.2003 14.0663C20.2313 14.1412 20.2768 14.2092 20.3341 14.2666C20.3914 14.3239 20.4595 14.3694 20.5344 14.4004C20.6093 14.4314 20.6896 14.4474 20.7706 14.4474C20.8517 14.4474 20.9319 14.4314 21.0068 14.4004C21.0817 14.3694 21.1498 14.3239 21.2072 14.2666C21.8839 13.5896 22.6874 13.0527 23.5717 12.6863C24.456 12.3199 25.4039 12.1314 26.3611 12.1314C27.3184 12.1314 28.2662 12.3199 29.1505 12.6863C30.0348 13.0527 30.8384 13.5896 31.5151 14.2666C31.5725 14.3239 31.6405 14.3694 31.7154 14.4004C31.7903 14.4314 31.8706 14.4474 31.9517 14.4474C32.0327 14.4474 32.113 14.4314 32.1879 14.4004C32.2628 14.3694 32.3308 14.3239 32.3881 14.2666C32.4454 14.2092 32.491 14.1412 32.522 14.0663C32.553 13.9914 32.5689 13.9112 32.5689 13.8301C32.5689 13.749 32.553 13.6687 32.522 13.5938C32.491 13.5189 32.4454 13.4509 32.3881 13.3936C31.5988 12.5989 30.6597 11.9688 29.6252 11.5396C28.5906 11.1105 27.4812 10.8909 26.3611 10.8936Z" fill="black"/>
<path d="M26.3612 18.5688C26.1934 18.5687 26.0294 18.6182 25.8898 18.7113C25.7502 18.8044 25.6414 18.9367 25.577 19.0917C25.5127 19.2466 25.4958 19.4172 25.5284 19.5817C25.561 19.7463 25.6416 19.8975 25.7602 20.0162C25.8788 20.1349 26.0299 20.2157 26.1944 20.2485C26.3589 20.2813 26.5294 20.2646 26.6845 20.2004C26.8395 20.1363 26.972 20.0276 27.0652 19.8881C27.1584 19.7486 27.2082 19.5846 27.2082 19.4169C27.2082 19.1921 27.119 18.9766 26.9601 18.8176C26.8013 18.6586 26.5859 18.5691 26.3612 18.5688Z" fill="black"/>
<path d="M15.0013 33.5889C14.8418 33.5891 14.6859 33.6365 14.5533 33.7253C14.4208 33.814 14.3175 33.9401 14.2565 34.0875C14.1956 34.2349 14.1797 34.3971 14.2109 34.5535C14.242 34.71 14.3189 34.8537 14.4317 34.9665C14.5445 35.0793 14.6882 35.1561 14.8446 35.1873C15.0011 35.2185 15.1632 35.2026 15.3107 35.1417C15.4581 35.0807 15.5842 34.9774 15.6729 34.8448C15.7617 34.7123 15.8091 34.5564 15.8093 34.3969C15.8091 34.1826 15.7239 33.9773 15.5724 33.8258C15.4209 33.6743 15.2156 33.5891 15.0013 33.5889Z" fill="black"/>
<path d="M11.1893 33.5889C11.0298 33.5891 10.8739 33.6365 10.7413 33.7253C10.6088 33.814 10.5055 33.9401 10.4446 34.0875C10.3836 34.2349 10.3677 34.3971 10.3988 34.5535C10.43 34.71 10.5069 34.8537 10.6197 34.9665C10.7325 35.0793 10.8762 35.1561 11.0326 35.1873C11.1891 35.2185 11.3512 35.2026 11.4986 35.1417C11.6461 35.0807 11.7721 34.9774 11.8609 34.8448C11.9496 34.7123 11.9971 34.5564 11.9973 34.3969C11.997 34.1826 11.9118 33.9773 11.7604 33.8258C11.6089 33.6743 11.4035 33.5891 11.1893 33.5889Z" fill="black"/>
<path d="M41.5331 33.5889C41.3735 33.5891 41.2176 33.6365 41.0851 33.7253C40.9525 33.814 40.8493 33.9401 40.7883 34.0875C40.7274 34.2349 40.7114 34.3971 40.7426 34.5535C40.7738 34.71 40.8506 34.8537 40.9634 34.9665C41.0762 35.0793 41.2199 35.1561 41.3764 35.1873C41.5328 35.2185 41.695 35.2026 41.8424 35.1417C41.9898 35.0807 42.1159 34.9774 42.2046 34.8448C42.2934 34.7123 42.3408 34.5564 42.341 34.3969C42.3408 34.1826 42.2556 33.9773 42.1041 33.8258C41.9526 33.6743 41.7473 33.5891 41.5331 33.5889Z" fill="black"/>
<path d="M37.7211 33.5889C37.5615 33.5891 37.4057 33.6365 37.2731 33.7253C37.1406 33.814 37.0373 33.9401 36.9763 34.0875C36.9153 34.2349 36.8994 34.3971 36.9306 34.5535C36.9618 34.71 37.0386 34.8537 37.1514 34.9665C37.2642 35.0793 37.4079 35.1561 37.5644 35.1873C37.7208 35.2185 37.883 35.2026 38.0304 35.1417C38.1779 35.0807 38.3039 34.9774 38.3926 34.8448C38.4814 34.7123 38.5288 34.5564 38.529 34.3969C38.529 34.1826 38.4439 33.9771 38.2924 33.8256C38.1409 33.674 37.9353 33.5889 37.7211 33.5889Z" fill="black"/>
<path d="M8.82611 42.6978H43.8961C44.464 42.697 45.0083 42.4711 45.4099 42.0696C45.8114 41.668 46.0374 41.1236 46.0382 40.5558V38.3608L46.0761 38.3518C46.8612 38.1802 47.6281 37.9337 48.3662 37.6158C48.4685 37.5647 48.5546 37.4861 48.6147 37.3888C48.6748 37.2914 48.7064 37.1792 48.7061 37.0648V29.3878C48.7059 29.2243 48.6408 29.0675 48.5252 28.9518C48.4095 28.8362 48.2527 28.7711 48.0891 28.7708H45.2561V25.7468H45.4201C45.5022 25.747 45.5836 25.7307 45.6594 25.6989C45.7351 25.6671 45.8037 25.6206 45.8611 25.5618C45.9185 25.5028 45.9637 25.433 45.9941 25.3564C46.0245 25.2799 46.0394 25.1981 46.0382 25.1158L45.5911 3.8548C45.5792 3.31197 45.3552 2.79541 44.9671 2.41571C44.579 2.03601 44.0576 1.82336 43.5147 1.82336C42.9717 1.82336 42.4503 2.03601 42.0622 2.41571C41.6741 2.79541 41.45 3.31197 41.4381 3.8548L40.9912 25.1158C40.9899 25.1981 41.0048 25.2799 41.0352 25.3564C41.0656 25.433 41.1108 25.5028 41.1682 25.5618C41.2256 25.6206 41.2942 25.6671 41.3699 25.6989C41.4457 25.7307 41.527 25.747 41.6091 25.7468H41.7731V28.7728H10.9471V25.7468H11.1111C11.1933 25.747 11.2746 25.7307 11.3503 25.6989C11.4261 25.6671 11.4947 25.6206 11.5521 25.5618C11.6095 25.5028 11.6547 25.433 11.6851 25.3564C11.7154 25.2799 11.7304 25.1981 11.7291 25.1158L11.2821 3.8548C11.2821 3.30394 11.0633 2.77568 10.6738 2.38617C10.2843 1.99666 9.756 1.77783 9.20514 1.77783C8.65429 1.77783 8.12597 1.99666 7.73645 2.38617C7.34694 2.77568 7.12811 3.30394 7.12811 3.8548L6.68213 25.1158C6.68085 25.1981 6.69583 25.2799 6.7262 25.3564C6.75657 25.433 6.80175 25.5028 6.85913 25.5618C6.91656 25.6206 6.98517 25.6671 7.06092 25.6989C7.13666 25.7307 7.21798 25.747 7.30011 25.7468H7.46411V28.7728H4.63111C4.46755 28.7731 4.31078 28.8381 4.19513 28.9538C4.07948 29.0694 4.01443 29.2263 4.01416 29.3898V37.0668C4.01385 37.1814 4.04563 37.2937 4.1059 37.3911C4.16617 37.4884 4.25247 37.567 4.3551 37.6178C5.09268 37.9361 5.85923 38.1826 6.64411 38.3538L6.68213 38.3628V40.5578C6.68345 41.1256 6.90992 41.6698 7.31183 42.071C7.71374 42.4721 8.25826 42.6976 8.82611 42.6978ZM44.8032 40.5558C44.8029 40.7963 44.7072 41.0268 44.5372 41.1968C44.3671 41.3669 44.1366 41.4626 43.8961 41.4628H8.82611C8.58564 41.4626 8.3551 41.3669 8.18506 41.1968C8.01502 41.0268 7.9194 40.7963 7.91913 40.5558V38.6388L7.97815 38.6508C11.0582 39.2758 16.7471 40.0228 26.3611 40.0228C35.9751 40.0228 41.6611 39.2758 44.7441 38.6508L44.8032 38.6388V40.5558ZM42.2401 24.4558L42.6721 3.87482C42.6796 3.6564 42.7717 3.4494 42.9289 3.29755C43.0861 3.14569 43.2961 3.06085 43.5147 3.06085C43.7332 3.06085 43.9432 3.14569 44.1003 3.29755C44.2575 3.4494 44.3496 3.6564 44.3571 3.87482L44.7902 24.5068H42.2391L42.2401 24.4558ZM44.0211 25.7408V28.7668H43.0081V25.7468L44.0211 25.7408ZM7.93311 24.4558L8.36511 3.87482C8.37264 3.6564 8.46471 3.4494 8.62189 3.29755C8.77907 3.14569 8.98909 3.06085 9.20764 3.06085C9.4262 3.06085 9.63622 3.14569 9.7934 3.29755C9.95058 3.4494 10.0426 3.6564 10.0501 3.87482L10.4832 24.5068H7.93213L7.93311 24.4558ZM9.71411 25.7408V28.7668H8.70111V25.7468L9.71411 25.7408ZM5.28314 36.6558L5.25012 36.6448V30.0008H47.4721V36.6468L47.4392 36.6578C46.0532 37.1578 40.4391 38.7858 26.3611 38.7858C12.2831 38.7858 6.66814 37.1588 5.28314 36.6598V36.6558Z" fill="black"/>
<path d="M30.847 32.1138H21.8651C21.7014 32.1143 21.5446 32.1796 21.429 32.2954C21.3134 32.4112 21.2483 32.5681 21.248 32.7318V36.0618C21.2486 36.2252 21.3138 36.3818 21.4294 36.4974C21.545 36.613 21.7016 36.6782 21.8651 36.6788H30.847C31.0105 36.6782 31.1672 36.613 31.2828 36.4974C31.3984 36.3818 31.4635 36.2252 31.4641 36.0618V32.7318C31.4638 32.5681 31.3988 32.4112 31.2831 32.2954C31.1675 32.1796 31.0107 32.1143 30.847 32.1138ZM30.23 35.4437H22.4871V33.3467H30.235L30.23 35.4437Z" fill="black"/>
</svg>
