<svg width="8" height="171" viewBox="0 0 8 171" fill="none" xmlns="http://www.w3.org/2000/svg">
<path d="M3.947 7.894C6.12687 7.894 7.894 6.12687 7.894 3.947C7.894 1.76713 6.12687 0 3.947 0C1.76713 0 0 1.76713 0 3.947C0 6.12687 1.76713 7.894 3.947 7.894Z" fill="#333333"/>
<path d="M3.947 38.967C6.12687 38.967 7.894 37.1999 7.894 35.02C7.894 32.8401 6.12687 31.073 3.947 31.073C1.76713 31.073 0 32.8401 0 35.02C0 37.1999 1.76713 38.967 3.947 38.967Z" fill="#333333"/>
<path d="M3.947 70.04C6.12687 70.04 7.894 68.2729 7.894 66.093C7.894 63.9131 6.12687 62.146 3.947 62.146C1.76713 62.146 0 63.9131 0 66.093C0 68.2729 1.76713 70.04 3.947 70.04Z" fill="#333333"/>
<path d="M2.41701 170.818H5.47601L5.47601 87.1249H2.41701L2.41701 170.818Z" fill="#333333"/>
</svg>
