<svg width="45" height="46" viewBox="0 0 45 46" fill="none" xmlns="http://www.w3.org/2000/svg">
<path d="M40.9059 8.172C43.1626 8.172 44.9919 6.34264 44.9919 4.086C44.9919 1.82936 43.1626 0 40.9059 0C38.6493 0 36.8199 1.82936 36.8199 4.086C36.8199 6.34264 38.6493 8.172 40.9059 8.172Z" fill="#333333"/>
<path d="M4.086 20.517C6.34264 20.517 8.172 18.6876 8.172 16.431C8.172 14.1743 6.34264 12.345 4.086 12.345C1.82936 12.345 0 14.1743 0 16.431C0 18.6876 1.82936 20.517 4.086 20.517Z" fill="#333333"/>
<path d="M22.496 20.517C24.7527 20.517 26.582 18.6876 26.582 16.431C26.582 14.1743 24.7527 12.345 22.496 12.345C20.2394 12.345 18.41 14.1743 18.41 16.431C18.41 18.6876 20.2394 20.517 22.496 20.517Z" fill="#333333"/>
<path d="M40.9059 20.517C43.1626 20.517 44.9919 18.6876 44.9919 16.431C44.9919 14.1743 43.1626 12.345 40.9059 12.345C38.6493 12.345 36.8199 14.1743 36.8199 16.431C36.8199 18.6876 38.6493 20.517 40.9059 20.517Z" fill="#333333"/>
<path d="M4.086 32.8619C6.34264 32.8619 8.172 31.0326 8.172 28.7759C8.172 26.5193 6.34264 24.6899 4.086 24.6899C1.82936 24.6899 0 26.5193 0 28.7759C0 31.0326 1.82936 32.8619 4.086 32.8619Z" fill="#333333"/>
<path d="M22.496 32.8619C24.7527 32.8619 26.582 31.0326 26.582 28.7759C26.582 26.5193 24.7527 24.6899 22.496 24.6899C20.2394 24.6899 18.41 26.5193 18.41 28.7759C18.41 31.0326 20.2394 32.8619 22.496 32.8619Z" fill="#333333"/>
<path d="M40.9059 32.8619C43.1626 32.8619 44.9919 31.0326 44.9919 28.7759C44.9919 26.5193 43.1626 24.6899 40.9059 24.6899C38.6493 24.6899 36.8199 26.5193 36.8199 28.7759C36.8199 31.0326 38.6493 32.8619 40.9059 32.8619Z" fill="#333333"/>
<path d="M4.086 45.2072C6.34264 45.2072 8.172 43.3778 8.172 41.1212C8.172 38.8645 6.34264 37.0352 4.086 37.0352C1.82936 37.0352 0 38.8645 0 41.1212C0 43.3778 1.82936 45.2072 4.086 45.2072Z" fill="#333333"/>
</svg>
