<svg width="61" height="46" viewBox="0 0 61 46" fill="none" xmlns="http://www.w3.org/2000/svg">
<path d="M40.1472 5.25929H12.4332C10.9195 5.24515 9.41812 5.53108 8.01562 6.10054C6.61313 6.66999 5.33742 7.51171 4.26208 8.57704C3.18675 9.64237 2.33314 10.9102 1.75061 12.3073C1.16808 13.7044 0.868164 15.2031 0.868164 16.7168C0.868164 18.2305 1.16808 19.7292 1.75061 21.1263C2.33314 22.5234 3.18675 23.7912 4.26208 24.8566C5.33742 25.9219 6.61313 26.7636 8.01562 27.3331C9.41812 27.9025 10.9195 28.1885 12.4332 28.1743H20.8812L21.5312 32.1863C21.5546 32.3348 21.6304 32.4699 21.7449 32.5673C21.8593 32.6647 22.0049 32.7179 22.1552 32.7173H23.1192V35.1353H14.5982C14.4304 35.1356 14.2695 35.2023 14.1509 35.321C14.0322 35.4396 13.9655 35.6005 13.9652 35.7683V42.9123C13.966 43.5966 14.2382 44.2526 14.722 44.7365C15.2059 45.2203 15.8619 45.4925 16.5462 45.4933H36.0302C36.7146 45.4928 37.3708 45.2207 37.8547 44.7368C38.3386 44.2528 38.6107 43.5967 38.6112 42.9123V35.7683C38.6112 35.6006 38.5446 35.4397 38.4261 35.3211C38.3077 35.2024 38.1469 35.1356 37.9792 35.1353H29.4572V32.7173H30.4212C30.5715 32.7179 30.717 32.6647 30.8315 32.5673C30.9459 32.4699 31.0218 32.3348 31.0452 32.1863L31.6952 28.1743H40.1472C43.1674 28.1461 46.0542 26.9265 48.1799 24.7809C50.3056 22.6353 51.4982 19.7371 51.4982 16.7168C51.4982 13.6965 50.3056 10.7984 48.1799 8.65272C46.0542 6.50709 43.1674 5.2875 40.1472 5.25929Z" fill="#E8E8E8"/>
<path d="M49.2383 0.0800781H21.5273C18.4886 0.0800781 15.5744 1.28715 13.4257 3.43585C11.277 5.58455 10.0698 8.49882 10.0698 11.5375C10.0698 14.5763 11.277 17.4905 13.4257 19.6392C15.5744 21.7879 18.4886 22.9951 21.5273 22.9951H29.9763L30.6263 27.0071C30.6498 27.1555 30.7255 27.2907 30.84 27.3881C30.9544 27.4855 31.1 27.5387 31.2503 27.5381H32.2143V29.9561H23.6923C23.5246 29.9563 23.3639 30.0231 23.2454 30.1418C23.1269 30.2605 23.0603 30.4213 23.0603 30.5891V37.733C23.0611 38.4173 23.3333 39.0734 23.8171 39.5573C24.301 40.0411 24.957 40.3133 25.6413 40.3141H45.1253C45.8096 40.3133 46.4656 40.0411 46.9495 39.5573C47.4333 39.0734 47.7055 38.4173 47.7063 37.733V30.5891C47.706 30.4212 47.6393 30.2604 47.5206 30.1417C47.402 30.0231 47.2411 29.9563 47.0733 29.9561H38.5473V27.5381H39.5113C39.6616 27.5387 39.8072 27.4855 39.9216 27.3881C40.0361 27.2907 40.1119 27.1555 40.1353 27.0071L40.7853 22.9951H49.2333C52.2721 22.9951 55.1863 21.7879 57.335 19.6392C59.4837 17.4905 60.6908 14.5763 60.6908 11.5375C60.6908 8.49882 59.4837 5.58455 57.335 3.43585C55.1863 1.28715 52.2721 0.0800781 49.2333 0.0800781H49.2383Z" fill="#FDD243"/>
<path d="M44.4379 1.97517H16.7269C13.7068 2.00339 10.8199 3.22297 8.69421 5.3686C6.56853 7.51424 5.37598 10.4124 5.37598 13.4327C5.37598 16.453 6.56853 19.3511 8.69421 21.4968C10.8199 23.6424 13.7068 24.862 16.7269 24.8902H25.176L25.8259 28.9012C25.8491 29.0498 25.9249 29.1852 26.0394 29.2828C26.1539 29.3805 26.2995 29.4338 26.45 29.4332H27.4139V31.8472H18.8929C18.8098 31.8472 18.7275 31.8636 18.6507 31.8954C18.5739 31.9272 18.5042 31.9738 18.4454 32.0326C18.3866 32.0914 18.3399 32.1611 18.3081 32.2379C18.2763 32.3147 18.2599 32.397 18.2599 32.4802V39.6242C18.2605 40.3086 18.5326 40.9647 19.0165 41.4486C19.5004 41.9325 20.1566 42.2047 20.8409 42.2052H40.325C41.0092 42.2044 41.6652 41.9322 42.1491 41.4484C42.633 40.9645 42.9052 40.3085 42.9059 39.6242V32.4802C42.9057 32.3124 42.8389 32.1516 42.7203 32.0329C42.6016 31.9143 42.4408 31.8474 42.2729 31.8472H33.752V29.4292H34.7159C34.8664 29.4298 35.012 29.3764 35.1265 29.2788C35.241 29.1812 35.3168 29.0458 35.34 28.8972L35.9899 24.8862H44.4379C45.9516 24.9003 47.453 24.6144 48.8555 24.045C50.258 23.4755 51.5337 22.6338 52.6091 21.5685C53.6844 20.5032 54.538 19.2353 55.1205 17.8382C55.7031 16.4411 56.003 14.9424 56.003 13.4287C56.003 11.915 55.7031 10.4163 55.1205 9.01918C54.538 7.62206 53.6844 6.35422 52.6091 5.28889C51.5337 4.22356 50.258 3.38184 48.8555 2.81239C47.453 2.24294 45.9516 1.95706 44.4379 1.9712V1.97517ZM41.6379 33.1162V39.6282C41.6374 39.977 41.4985 40.3113 41.2518 40.5578C41.0051 40.8043 40.6707 40.9429 40.322 40.9432H20.8409C20.4921 40.9432 20.1575 40.8047 19.9108 40.5581C19.664 40.3115 19.5252 39.977 19.525 39.6282V33.1162H41.6379ZM28.679 31.8472V29.4292H32.486V31.8472H28.679ZM34.179 28.1632H26.991L26.46 24.8862H34.71L34.179 28.1632ZM44.4399 23.6202H16.7269C14.0238 23.6202 11.4315 22.5464 9.52014 20.635C7.60877 18.7236 6.53497 16.1313 6.53497 13.4282C6.53497 10.7251 7.60877 8.13276 9.52014 6.22139C11.4315 4.31002 14.0238 3.23622 16.7269 3.23622H44.4379C47.141 3.23622 49.7334 4.31002 51.6448 6.22139C53.5561 8.13276 54.6299 10.7251 54.6299 13.4282C54.6299 16.1313 53.5561 18.7236 51.6448 20.635C49.7334 22.5464 47.141 23.6202 44.4379 23.6202H44.4399Z" fill="black"/>
<path d="M30.5828 5.43945C29.0021 5.43965 27.4568 5.90857 26.1425 6.78693C24.8282 7.66528 23.8039 8.9136 23.1991 10.3741C22.5942 11.8346 22.436 13.4416 22.7445 14.992C23.0529 16.5424 23.8142 17.9666 24.932 19.0844C26.0497 20.2021 27.4738 20.9633 29.0242 21.2718C30.5746 21.5802 32.1817 21.422 33.6422 20.8172C35.1027 20.2124 36.351 19.188 37.2294 17.8737C38.1077 16.5594 38.5767 15.0142 38.5769 13.4334C38.5753 11.3138 37.7325 9.28141 36.2337 7.78259C34.7349 6.28377 32.7025 5.44104 30.5828 5.43945ZM30.5828 20.1604C29.2521 20.1604 27.9513 19.7658 26.8449 19.0265C25.7384 18.2872 24.8761 17.2363 24.3669 16.0069C23.8577 14.7775 23.7245 13.4246 23.9842 12.1195C24.2439 10.8144 24.8847 9.61557 25.8258 8.67468C26.7668 7.73379 27.9657 7.09305 29.2709 6.83356C30.5761 6.57407 31.9289 6.70748 33.1582 7.21686C34.3876 7.72624 35.4383 8.58871 36.1774 9.69525C36.9166 10.8018 37.3111 12.1027 37.3109 13.4334C37.3087 15.217 36.5992 16.927 35.3378 18.1882C34.0765 19.4493 32.3665 20.1585 30.5828 20.1604Z" fill="black"/>
<path d="M30.5827 8.90234C29.6868 8.90234 28.8111 9.16799 28.0661 9.66571C27.3212 10.1634 26.7406 10.8709 26.3977 11.6985C26.0548 12.5262 25.965 13.437 26.1397 14.3157C26.3144 15.1944 26.7458 16.0016 27.3792 16.6352C28.0126 17.2688 28.8197 17.7003 29.6983 17.8752C30.577 18.0501 31.4878 17.9605 32.3156 17.6178C33.1434 17.2751 33.8509 16.6947 34.3488 15.9498C34.8467 15.205 35.1126 14.3293 35.1128 13.4333C35.1115 12.2322 34.6338 11.0807 33.7845 10.2313C32.9353 9.38185 31.7839 8.90393 30.5827 8.90234ZM30.5827 16.6964C29.9371 16.6964 29.3061 16.5049 28.7693 16.1462C28.2325 15.7875 27.8141 15.2777 27.5671 14.6812C27.3201 14.0847 27.2555 13.4284 27.3815 12.7952C27.5075 12.162 27.8186 11.5805 28.2751 11.124C28.7317 10.6676 29.3134 10.3568 29.9466 10.231C30.5798 10.1051 31.2361 10.1699 31.8325 10.4171C32.4289 10.6643 32.9386 11.0828 33.2972 11.6197C33.6557 12.1566 33.8469 12.7877 33.8467 13.4333C33.8457 14.2986 33.5014 15.1281 32.8895 15.7398C32.2776 16.3515 31.448 16.6956 30.5827 16.6964Z" fill="black"/>
</svg>
